<svg width="40" height="36" viewBox="0 0 40 36" fill="none" xmlns="http://www.w3.org/2000/svg">
<path d="M20.0036 11.7892L13.9471 1.10069C14.1482 0.895945 14.3795 0.76165 14.6109 0.671387C12.8248 1.2592 12.0053 3.26481 12.0053 3.26481L0.940942 22.7859C0.785258 23.3979 0.742009 23.9505 0.761469 24.4371H12.8378L20.0036 11.7892Z" fill="#34A853"/>
<path d="M20.0034 11.7892L27.1692 24.4371H39.2455C39.265 23.9505 39.2217 23.3979 39.066 22.7859L28.0016 3.26481C28.0016 3.26481 27.18 1.2592 25.3961 0.671387C25.6253 0.76165 25.8588 0.895945 26.0599 1.10069L20.0034 11.7892Z" fill="#FBBC05"/>
<path d="M20.0034 11.7895L26.0599 1.101C25.8588 0.896253 25.6253 0.761958 25.3961 0.671695C25.1323 0.585834 24.8491 0.528594 24.542 0.513184H24.222H15.7848H15.4648C15.1599 0.526393 14.8745 0.583633 14.6107 0.671695C14.3815 0.761958 14.1479 0.896253 13.9468 1.101L20.0034 11.7895Z" fill="#188038"/>
<path d="M12.8398 24.437L6.8524 35.0044C6.8524 35.0044 6.65346 34.9076 6.38318 34.7072C7.23296 35.3611 8.05895 35.4998 8.05895 35.4998H31.5738C32.8711 35.4998 33.1414 35.0044 33.1414 35.0044C33.1457 35.0022 33.1479 35 33.1522 34.9978L27.1692 24.437H12.8398Z" fill="#4285F4"/>
<path d="M12.8402 24.437H0.763885C0.824429 25.8724 1.44717 26.7112 1.44717 26.7112L1.90125 27.4994C1.93368 27.5456 1.95314 27.572 1.95314 27.572L2.9413 29.3068L5.1598 33.1683C5.22467 33.3247 5.30035 33.4678 5.38036 33.6042C5.41063 33.6505 5.43874 33.7011 5.47117 33.7451C5.47982 33.7584 5.48847 33.7716 5.49712 33.7848C5.77173 34.1722 6.07877 34.4717 6.38582 34.7072C6.6561 34.9098 6.85503 35.0044 6.85503 35.0044L12.8402 24.437Z" fill="#1967D2"/>
<path d="M27.1692 24.437H39.2455C39.185 25.8724 38.5623 26.7112 38.5623 26.7112L38.1082 27.4994C38.0757 27.5456 38.0563 27.572 38.0563 27.572L37.0681 29.3068L34.8496 33.1683C34.7847 33.3247 34.7091 33.4678 34.6291 33.6042C34.5988 33.6505 34.5707 33.7011 34.5382 33.7451C34.5296 33.7584 34.5209 33.7716 34.5123 33.7848C34.2377 34.1722 33.9306 34.4717 33.6236 34.7072C33.3533 34.9098 33.1544 35.0044 33.1544 35.0044L27.1692 24.437Z" fill="#EA4335"/>
</svg>
