<svg width="46" height="46" viewBox="0 0 46 46" fill="none" xmlns="http://www.w3.org/2000/svg">
<path d="M14.6843 18.7629V18.4074C14.6843 17.5063 15.4059 16.759 16.336 16.6969L23.1109 16.2446L32.4799 30.0413V17.9324L30.0684 17.6109V17.4421C30.0684 16.5304 30.8066 15.7782 31.7485 15.7299L37.9129 15.4142V16.3013C37.9129 16.7177 37.6032 17.0739 37.1788 17.1457L35.6954 17.3966V37.0066L33.8336 37.6468C32.2783 38.1817 30.5468 37.6091 29.6564 36.2656L20.5607 22.5402V35.6403L23.3604 36.1761L23.3214 36.4358C23.1992 37.2492 22.4969 37.8644 21.6473 37.9022L14.6843 38.2121C14.5922 37.3374 15.2478 36.5549 16.1522 36.4599L17.0681 36.3636V18.8968L14.6843 18.7629Z" fill="black"/>
<path fill-rule="evenodd" clip-rule="evenodd" d="M31.1812 0.191991L3.2662 2.09786C1.5941 2.21202 0.297974 3.5563 0.297974 5.17635V32.3274C0.297974 33.8496 0.821959 35.3285 1.78738 36.5312L7.80626 44.0293C8.77941 45.2417 10.3109 45.9092 11.8952 45.8117L42.8777 43.9045C44.4657 43.8067 45.7019 42.5335 45.7019 40.9957V10.1276C45.7019 9.17616 45.2214 8.28463 44.4148 7.73926L34.6069 1.10814C33.6074 0.432345 32.398 0.108915 31.1812 0.191991ZM4.65044 5.59987C4.26219 5.31242 4.44697 4.71358 4.9347 4.6786L31.369 2.78256C32.2112 2.72215 33.0481 2.95408 33.7292 3.43666L39.0331 7.19434C39.2344 7.33701 39.14 7.64498 38.8907 7.65854L10.8969 9.18101C10.0497 9.22708 9.21349 8.9782 8.5399 8.47949L4.65044 5.59987ZM9.58388 13.9539C9.58388 13.0444 10.3186 12.2932 11.2581 12.242L40.8555 10.6302C41.7711 10.5803 42.5419 11.2845 42.5419 12.1708V38.8993C42.5419 39.8071 41.8098 40.5576 40.8721 40.6109L11.4622 42.2843C10.4432 42.3423 9.58388 41.5593 9.58388 40.5727V13.9539Z" fill="black"/>
</svg>
